<svg width="47" height="46" viewBox="0 0 47 46" fill="none" xmlns="http://www.w3.org/2000/svg">
<g clip-path="url(#clip0_222_1907)">
<path fill-rule="evenodd" clip-rule="evenodd" d="M40.4122 34.0854C39.183 32.5374 37.1869 30.2944 35.4781 30.0818C34.4384 29.9526 33.2436 30.8142 32.0661 31.627C31.8364 31.7419 30.0615 32.7988 29.846 32.8619C28.7087 33.1865 26.2819 33.2813 24.8143 31.9429C23.4012 30.6505 21.1668 28.2581 19.3632 26.0668C17.64 23.8093 15.8335 21.0953 14.9087 19.4295C13.9437 17.7034 14.6387 15.4202 15.2361 14.415C15.3452 14.2341 16.6664 12.8756 16.9622 12.5597L17.0053 12.6114C18.0995 11.6923 19.2454 10.7589 19.3747 9.74796C19.5872 8.06496 17.8669 5.61514 16.6377 4.06425C15.4084 2.51049 13.5043 -0.209311 10.9109 0.175539C9.93437 0.31914 9.09287 0.66091 8.26286 1.15202L8.23988 1.12618C8.19334 1.16083 8.14738 1.19626 8.10202 1.23244L8.03022 1.26978L8.03884 1.28126C7.56209 1.64888 6.20075 2.66558 6.04566 2.80343C4.36266 4.29975 1.82954 7.82371 3.78826 14.1623C5.2415 18.8724 8.3404 24.4039 12.5623 29.9985L12.5393 30.0186C12.7461 30.2886 12.9586 30.5327 13.174 30.7941C13.375 31.0612 13.5732 31.3254 13.78 31.5896L13.8087 31.5695C18.2891 36.966 22.9877 41.2798 27.2756 43.8244C33.0483 47.2479 37.1525 45.7056 39.048 44.4792C39.226 44.3615 40.5816 43.3075 41.0412 42.9599L41.0527 42.9714C41.0699 42.9542 41.0814 42.9312 41.1043 42.914C41.1458 42.8827 41.1869 42.8511 41.2278 42.8192L41.2106 42.7962C41.9056 42.1242 42.4628 41.4062 42.8477 40.5015C43.8557 38.1206 41.6414 35.6392 40.4122 34.0854Z" fill="white"/>
</g>
<defs>
<clipPath id="clip0_222_1907">
<rect width="45.9522" height="45.9522" fill="white" transform="translate(0.11496 0.0463867)"/>
</clipPath>
</defs>
</svg>
