<svg width="102" height="30" viewBox="0 0 102 30" fill="none" xmlns="http://www.w3.org/2000/svg">
<path d="M2 13C0.89543 13 -9.65645e-08 13.8954 0 15C9.65645e-08 16.1046 0.895431 17 2 17L2 13ZM101.414 16.4142C102.195 15.6332 102.195 14.3668 101.414 13.5858L88.6863 0.857857C87.9052 0.0768081 86.6389 0.0768082 85.8579 0.857857C85.0768 1.63891 85.0768 2.90524 85.8579 3.68628L97.1716 15L85.8579 26.3137C85.0768 27.0947 85.0768 28.3611 85.8579 29.1421C86.6389 29.9232 87.9052 29.9232 88.6863 29.1421L101.414 16.4142ZM2 15L2 17L100 17L100 15L100 13L2 13L2 15Z" fill="white"/>
</svg>
