<svg width="157" height="157" viewBox="0 0 157 157" fill="none" xmlns="http://www.w3.org/2000/svg">
<circle cx="77.5" cy="77.4995" r="51.5" fill="white" stroke="#6ACC20" stroke-width="2"/>
<path d="M122.337 112.392C113.28 124.086 99.9487 131.704 85.2753 133.569C70.6018 135.434 55.7885 131.394 44.094 122.337C32.3995 113.28 24.7818 99.9484 22.9167 85.2749C21.0517 70.6015 25.092 55.7881 34.1488 44.0937L42.9677 50.9235C35.7222 60.279 32.4899 72.1297 33.982 83.8685C35.474 95.6072 41.5682 106.272 50.9238 113.518C60.2794 120.763 72.1301 123.996 83.8688 122.504C95.6076 121.012 106.273 114.917 113.518 105.562L122.337 112.392Z" fill="#6ACC20"/>
<g clip-path="url(#clip0_40_193)">
<path d="M94.8665 71.9823H74.3778C75.3252 70.8933 75.9009 69.4727 75.9009 67.9193C75.9009 64.5008 73.1198 61.7197 69.7013 61.7197C66.2828 61.7197 63.5018 64.5008 63.5018 67.9193C63.5018 69.4727 64.0774 70.8933 65.0248 71.9823H60.1339C57.1784 71.9823 54.7739 74.3868 54.7739 77.3423V83.667C54.7739 84.259 55.2539 84.739 55.8459 84.739C56.438 84.739 56.9179 84.259 56.9179 83.667V77.3423C56.9179 75.569 58.3606 74.1263 60.1339 74.1263H90.1497C91.923 74.1263 93.3657 75.569 93.3657 77.3423V83.1311H82.2169C79.2615 83.1311 76.857 85.5356 76.857 88.491C76.857 91.4465 79.2615 93.851 82.2169 93.851H93.3657V99.6398C93.3657 101.413 91.923 102.856 90.1497 102.856H60.1339C58.3606 102.856 56.9179 101.413 56.9179 99.6398V93.3066C56.9179 92.7146 56.438 92.2346 55.8459 92.2346C55.2539 92.2346 54.7739 92.7146 54.7739 93.3066V99.6398C54.7739 102.595 57.1784 105 60.1339 105H94.8665C97.822 105 100.226 102.595 100.226 99.6398V77.3423C100.226 74.3868 97.822 71.9823 94.8665 71.9823ZM69.7013 63.8638C71.9376 63.8638 73.7569 65.6831 73.7569 67.9194C73.7569 70.1557 71.9376 71.9749 69.7013 71.9749C67.4651 71.9749 65.6458 70.1557 65.6458 67.9194C65.6458 65.6831 67.465 63.8638 69.7013 63.8638ZM94.4348 74.1263H94.8665C96.6398 74.1263 98.0824 75.569 98.0824 77.3423V83.1311H95.5097V77.3423C95.5097 76.1366 95.1093 75.0228 94.4348 74.1263ZM79.001 88.491C79.001 86.7177 80.4437 85.2751 82.2169 85.2751H98.0824V91.707H82.2169C80.4437 91.707 79.001 90.2643 79.001 88.491ZM94.8665 102.856H94.4348C95.1093 101.959 95.5097 100.846 95.5097 99.6398V93.851H98.0824V99.6398C98.0824 101.413 96.6398 102.856 94.8665 102.856Z" fill="#6ACC20"/>
<path d="M81.9426 87.4189C81.6596 87.4189 81.383 87.5336 81.1836 87.733C80.9842 87.9324 80.8706 88.209 80.8706 88.4909C80.8706 88.7729 80.9842 89.0494 81.1836 89.2488C81.3841 89.4482 81.6596 89.5629 81.9426 89.5629C82.2245 89.5629 82.5 89.4482 82.7005 89.2488C82.8999 89.0494 83.0146 88.7729 83.0146 88.4909C83.0146 88.209 82.8999 87.9324 82.7005 87.733C82.5011 87.5335 82.2245 87.4189 81.9426 87.4189Z" fill="#6ACC20"/>
<path d="M85.2992 64.7565C88.7176 64.7565 91.4987 61.9755 91.4987 58.557C91.4987 55.1386 88.7176 52.3574 85.2992 52.3574C81.8807 52.3574 79.0996 55.1385 79.0996 58.557C79.0996 61.9755 81.8807 64.7565 85.2992 64.7565ZM85.2992 54.5015C87.5353 54.5015 89.3547 56.3208 89.3547 58.5571C89.3547 60.7934 87.5354 62.6126 85.2992 62.6126C83.0629 62.6126 81.2436 60.7934 81.2436 58.5571C81.2436 56.3208 83.0629 54.5015 85.2992 54.5015Z" fill="#6ACC20"/>
<path d="M74.8288 60.5673C75.4209 60.5673 75.9008 60.0874 75.9008 59.4953V51.0715C75.9008 50.4794 75.4209 49.9995 74.8288 49.9995C74.2368 49.9995 73.7568 50.4794 73.7568 51.0715V59.4953C73.7568 60.0874 74.2368 60.5673 74.8288 60.5673Z" fill="#6ACC20"/>
<path d="M69.6833 56.8603C70.2754 56.8603 70.7553 56.3803 70.7553 55.7883V51.0715C70.7553 50.4794 70.2754 49.9995 69.6833 49.9995C69.0913 49.9995 68.6113 50.4794 68.6113 51.0715V55.7883C68.6113 56.3803 69.0913 56.8603 69.6833 56.8603Z" fill="#6ACC20"/>
<path d="M55.8459 89.5629C56.1279 89.5629 56.4044 89.4482 56.6038 89.2488C56.8032 89.0494 56.9179 88.7729 56.9179 88.4909C56.9179 88.209 56.8032 87.9324 56.6038 87.733C56.4044 87.5336 56.1289 87.4189 55.8459 87.4189C55.564 87.4189 55.2874 87.5336 55.088 87.733C54.8886 87.9324 54.7739 88.209 54.7739 88.4909C54.7739 88.7729 54.8886 89.0494 55.088 89.2488C55.2874 89.4482 55.5639 89.5629 55.8459 89.5629Z" fill="#6ACC20"/>
</g>
<defs>
<clipPath id="clip0_40_193">
<rect width="55" height="55" fill="white" transform="translate(50 49.9995)"/>
</clipPath>
</defs>
</svg>
