<svg width="67" height="69" viewBox="0 0 67 69" fill="none" xmlns="http://www.w3.org/2000/svg">
<ellipse cx="33.4794" cy="34.5193" rx="33.327" ry="33.7558" fill="white"/>
<path d="M34.6103 45.9721H25.5643C23.6941 45.9721 22.1721 44.4306 22.1721 42.5363V23.0664C22.1721 21.1721 23.6941 19.6305 25.5643 19.6305H39.1332C41.0034 19.6305 42.5254 21.1721 42.5254 23.0664V28.8615C42.5254 29.4937 43.0309 30.0068 43.6562 30.0068C44.2815 30.0068 44.7869 29.4937 44.7869 28.8615V23.0664C44.7869 19.9088 42.2507 17.34 39.1332 17.34H25.5643C22.4469 17.34 19.9106 19.9088 19.9106 23.0664V42.5363C19.9106 45.6938 22.4469 48.2627 25.5643 48.2627H34.6103C35.2355 48.2627 35.741 47.7496 35.741 47.1174C35.741 46.4852 35.2355 45.9721 34.6103 45.9721Z" fill="#0A9642"/>
<path d="M26.6952 26.5022H34.6104C35.2357 26.5022 35.7411 25.9892 35.7411 25.357C35.7411 24.7248 35.2357 24.2117 34.6104 24.2117H26.6952C26.0699 24.2117 25.5645 24.7248 25.5645 25.357C25.5645 25.9892 26.0699 26.5022 26.6952 26.5022Z" fill="#0A9642"/>
<path d="M37.2789 31.0834C37.2789 30.4512 36.7735 29.9381 36.1482 29.9381H26.6952C26.0699 29.9381 25.5645 30.4512 25.5645 31.0834C25.5645 31.7156 26.0699 32.2287 26.6952 32.2287H36.1482C36.7735 32.2287 37.2789 31.7156 37.2789 31.0834Z" fill="#0A9642"/>
<path d="M34.0676 35.6646C34.0676 35.0324 33.5622 34.5193 32.9369 34.5193H26.6952C26.0699 34.5193 25.5645 35.0324 25.5645 35.6646C25.5645 36.2968 26.0699 36.8099 26.6952 36.8099H32.9369C33.5622 36.8099 34.0676 36.2968 34.0676 35.6646Z" fill="#0A9642"/>
<path d="M26.6952 39.1005C26.0699 39.1005 25.5645 39.6136 25.5645 40.2457C25.5645 40.8779 26.0699 41.391 26.6952 41.391H32.4167C33.042 41.391 33.5475 40.8779 33.5475 40.2457C33.5475 39.6136 33.042 39.1005 32.4167 39.1005H26.6952Z" fill="#0A9642"/>
<path d="M49.3101 39.1005C49.3101 35.3107 46.2673 32.2288 42.5256 32.2288C38.784 32.2288 35.7412 35.3107 35.7412 39.1005C35.7412 41.1288 36.6187 42.9486 38.0027 44.2084V49.9773C38.0027 50.6117 38.3476 51.1935 38.9005 51.4936C39.4568 51.796 40.1217 51.7628 40.6464 51.4089L42.5256 50.1307L44.4095 51.4112C44.6921 51.6024 45.0178 51.6975 45.3457 51.6975C45.6205 51.6975 45.8975 51.6299 46.1508 51.4925C46.7037 51.1924 47.0486 50.6106 47.0486 49.9761V44.2073C48.4326 42.9486 49.3101 41.1299 49.3101 39.1005ZM44.7871 48.9087L43.1566 47.8001C42.7744 47.5401 42.278 47.5401 41.8958 47.8001L40.2653 48.9087V45.5713C40.9743 45.8267 41.733 45.9722 42.5268 45.9722C43.3206 45.9722 44.0793 45.8256 44.7883 45.5713L44.7871 48.9087ZM42.5256 43.6816C40.0312 43.6816 38.0027 41.627 38.0027 39.1005C38.0027 36.574 40.0312 34.5193 42.5256 34.5193C45.0201 34.5193 47.0486 36.574 47.0486 39.1005C47.0486 41.627 45.0201 43.6816 42.5256 43.6816Z" fill="#0A9642"/>
</svg>
