<svg width="157" height="157" viewBox="0 0 157 157" fill="none" xmlns="http://www.w3.org/2000/svg">
<circle cx="77.5" cy="77.9858" r="51.5" fill="white" stroke="#6ACC20" stroke-width="2"/>
<path d="M122.337 112.392C113.28 124.086 99.9487 131.704 85.2753 133.569C70.6018 135.434 55.7885 131.394 44.094 122.337C32.3995 113.28 24.7818 99.9484 22.9167 85.2749C21.0517 70.6015 25.092 55.7881 34.1488 44.0937L42.9677 50.9235C35.7222 60.279 32.4899 72.1297 33.982 83.8685C35.474 95.6072 41.5682 106.272 50.9238 113.518C60.2794 120.763 72.1301 123.996 83.8688 122.504C95.6076 121.012 106.273 114.917 113.518 105.562L122.337 112.392Z" fill="#6ACC20"/>
<path d="M101.682 88.8623H57.4002C57.2541 88.8623 57.1097 88.831 56.9767 88.7706C56.8438 88.7101 56.7252 88.6219 56.6292 88.5119C56.5331 88.4019 56.4617 88.2726 56.4197 88.1327C56.3777 87.9928 56.3661 87.8455 56.3858 87.7007L60.1893 59.7027C60.2227 59.4573 60.3439 59.2324 60.5304 59.0696C60.7169 58.9067 60.9561 58.8169 61.2037 58.8169H97.8789C98.1265 58.8169 98.3657 58.9067 98.5522 59.0696C98.7387 59.2324 98.8599 59.4573 98.8933 59.7027L102.697 87.7007C102.716 87.8455 102.705 87.9928 102.663 88.1327C102.621 88.2726 102.549 88.4019 102.453 88.5119C102.357 88.6219 102.239 88.7101 102.106 88.7706C101.973 88.831 101.828 88.8623 101.682 88.8623ZM58.5726 86.8143H100.51L96.9842 60.8649H62.0984L58.5726 86.8143Z" fill="#6ACC20"/>
<path d="M92.8247 88.862C92.5677 88.8618 92.3202 88.7649 92.1313 88.5906C91.9425 88.4163 91.826 88.1774 91.8052 87.9212L89.5229 59.9238C89.5009 59.6531 89.5872 59.3847 89.7631 59.1776C89.9389 58.9706 90.1898 58.8419 90.4605 58.8198C90.7313 58.7977 90.9997 58.8841 91.2067 59.0599C91.4137 59.2358 91.5425 59.4867 91.5645 59.7574L93.8468 87.7548C93.8577 87.8889 93.8421 88.0238 93.8009 88.1518C93.7597 88.2799 93.6937 88.3985 93.6067 88.5011C93.5196 88.6036 93.4132 88.688 93.2935 88.7493C93.1738 88.8107 93.0432 88.8479 92.9092 88.8588C92.881 88.8608 92.856 88.862 92.8247 88.862Z" fill="#6ACC20"/>
<path d="M83.9691 88.8621C83.7022 88.8622 83.4459 88.7581 83.2546 88.5719C83.0633 88.3858 82.9523 88.1324 82.9451 87.8656L82.1854 59.8681C82.1818 59.7337 82.2046 59.5998 82.2527 59.4741C82.3008 59.3485 82.3732 59.2336 82.4657 59.1359C82.5582 59.0382 82.669 58.9597 82.7918 58.9049C82.9147 58.8501 83.0471 58.82 83.1816 58.8163C83.3161 58.8126 83.4499 58.8355 83.5756 58.8836C83.7012 58.9317 83.8162 59.004 83.9138 59.0965C84.0115 59.189 84.09 59.2999 84.1448 59.4227C84.1997 59.5455 84.2298 59.678 84.2334 59.8125L84.9944 87.8099C84.9981 87.9443 84.9752 88.0782 84.9271 88.2038C84.8791 88.3294 84.8067 88.4443 84.7143 88.5419C84.6218 88.6396 84.511 88.718 84.3882 88.7729C84.2654 88.8277 84.133 88.8578 83.9986 88.8614L83.9691 88.8621Z" fill="#6ACC20"/>
<path d="M75.1132 88.8624H75.0851C74.9507 88.8587 74.8183 88.8287 74.6955 88.7738C74.5726 88.719 74.4618 88.6405 74.3694 88.5429C74.2769 88.4453 74.2046 88.3304 74.1565 88.2048C74.1084 88.0791 74.0856 87.9453 74.0892 87.8109L74.8502 59.8134C74.8576 59.5419 74.9726 59.2843 75.1698 59.0975C75.3671 58.9107 75.6305 58.8099 75.902 58.8173C76.1736 58.8247 76.4312 58.9396 76.618 59.1369C76.8048 59.3341 76.9056 59.5975 76.8982 59.8691L76.1366 87.8659C76.1294 88.1326 76.0185 88.3859 75.8274 88.572C75.6362 88.7582 75.38 88.8623 75.1132 88.8624Z" fill="#6ACC20"/>
<path d="M66.2574 88.8622C66.2293 88.8622 66.2011 88.8622 66.1729 88.859C66.0389 88.8481 65.9083 88.8109 65.7886 88.7495C65.6689 88.6882 65.5625 88.6038 65.4754 88.5013C65.3884 88.3988 65.3223 88.2801 65.2811 88.152C65.24 88.024 65.2244 87.8891 65.2353 87.755L67.5182 59.7576C67.5271 59.622 67.5628 59.4896 67.6234 59.3679C67.6839 59.2463 67.7681 59.1379 67.8709 59.0492C67.9738 58.9604 68.0932 58.8929 68.2224 58.8508C68.3516 58.8087 68.4878 58.7926 68.6233 58.8037C68.7587 58.8147 68.8905 58.8526 69.0112 58.9151C69.1318 58.9776 69.2388 59.0635 69.3259 59.1678C69.413 59.2721 69.4785 59.3926 69.5185 59.5224C69.5586 59.6523 69.5724 59.7888 69.5592 59.924L67.2769 87.9214C67.2561 88.1776 67.1396 88.4165 66.9508 88.5908C66.7619 88.7651 66.5144 88.862 66.2574 88.8622Z" fill="#6ACC20"/>
<path d="M100.59 80.8278H58.4918C58.2202 80.8278 57.9597 80.7199 57.7677 80.5279C57.5757 80.3358 57.4678 80.0754 57.4678 79.8038C57.4678 79.5322 57.5757 79.2717 57.7677 79.0797C57.9597 78.8877 58.2202 78.7798 58.4918 78.7798H100.59C100.862 78.7798 101.122 78.8877 101.314 79.0797C101.506 79.2717 101.614 79.5322 101.614 79.8038C101.614 80.0754 101.506 80.3358 101.314 80.5279C101.122 80.7199 100.862 80.8278 100.59 80.8278Z" fill="#6ACC20"/>
<path d="M99.6015 73.5514H59.4805C59.209 73.5514 58.9485 73.4435 58.7565 73.2515C58.5644 73.0595 58.4565 72.799 58.4565 72.5274C58.4565 72.2558 58.5644 71.9954 58.7565 71.8033C58.9485 71.6113 59.209 71.5034 59.4805 71.5034H99.6015C99.8731 71.5034 100.134 71.6113 100.326 71.8033C100.518 71.9954 100.626 72.2558 100.626 72.5274C100.626 72.799 100.518 73.0595 100.326 73.2515C100.134 73.4435 99.8731 73.5514 99.6015 73.5514Z" fill="#6ACC20"/>
<path d="M98.7009 66.9215H60.3809C60.1094 66.9215 59.8489 66.8136 59.6569 66.6216C59.4648 66.4296 59.3569 66.1691 59.3569 65.8975C59.3569 65.626 59.4648 65.3655 59.6569 65.1735C59.8489 64.9814 60.1094 64.8735 60.3809 64.8735H98.7009C98.9725 64.8735 99.233 64.9814 99.425 65.1735C99.6171 65.3655 99.7249 65.626 99.7249 65.8975C99.7249 66.1691 99.6171 66.4296 99.425 66.6216C99.233 66.8136 98.9725 66.9215 98.7009 66.9215Z" fill="#6ACC20"/>
<path d="M88.9521 99.0935H70.1309C69.8594 99.0935 69.5989 98.9856 69.4069 98.7936C69.2148 98.6015 69.1069 98.3411 69.1069 98.0695V94.2237C69.1069 93.9522 69.2148 93.6917 69.4069 93.4997C69.5989 93.3076 69.8594 93.1997 70.1309 93.1997H76.2865V87.8385C76.2865 87.5669 76.3943 87.3064 76.5864 87.1144C76.7784 86.9223 77.0389 86.8145 77.3105 86.8145H81.7719C82.0435 86.8145 82.3039 86.9223 82.496 87.1144C82.688 87.3064 82.7959 87.5669 82.7959 87.8385V93.1997H88.9521C89.2236 93.1997 89.4841 93.3076 89.6761 93.4997C89.8682 93.6917 89.9761 93.9522 89.9761 94.2237V98.0682C89.9762 98.2028 89.9499 98.3361 89.8985 98.4605C89.8471 98.5849 89.7717 98.6979 89.6766 98.7931C89.5815 98.8883 89.4685 98.9639 89.3442 99.0154C89.2199 99.067 89.0866 99.0935 88.9521 99.0935ZM71.1556 97.0455H87.9281V95.2477H81.7719C81.5003 95.2477 81.2399 95.1399 81.0478 94.9478C80.8558 94.7558 80.7479 94.4953 80.7479 94.2237V88.8625H78.3345V94.2237C78.3345 94.4953 78.2266 94.7558 78.0345 94.9478C77.8425 95.1399 77.582 95.2477 77.3105 95.2477H71.1549L71.1556 97.0455Z" fill="#6ACC20"/>
<path d="M98.7477 67.2701C98.5004 67.2707 98.2613 67.1817 98.0745 67.0197C97.8877 66.8576 97.7659 66.6335 97.7315 66.3886C97.6971 66.1437 97.7524 65.8947 97.8873 65.6874C98.0223 65.4802 98.2276 65.3288 98.4655 65.2612C99.1689 65.0582 99.8071 64.6748 100.317 64.149C100.826 63.6232 101.189 62.9732 101.37 62.2637C101.55 61.5542 101.542 60.8097 101.346 60.1043C101.15 59.3989 100.773 58.7569 100.253 58.2423C99.7319 57.7276 99.0856 57.3581 98.3779 57.1704C97.6702 56.9827 96.9257 56.9834 96.2184 57.1724C95.511 57.3614 94.8654 57.7321 94.3456 58.2477C93.8258 58.7633 93.4499 59.4059 93.2552 60.1117C93.1833 60.3736 93.0103 60.5963 92.7743 60.7306C92.5383 60.865 92.2586 60.9001 91.9967 60.8282C91.7347 60.7563 91.5121 60.5833 91.3778 60.3473C91.2434 60.1113 91.2083 59.8316 91.2802 59.5696C91.5694 58.519 92.1284 57.5622 92.9018 56.7945C93.6751 56.0267 94.6359 55.4746 95.6886 55.1931C96.7414 54.9115 97.8495 54.9102 98.9029 55.1894C99.9562 55.4686 100.918 56.0185 101.693 56.7845C102.468 57.5505 103.03 58.506 103.321 59.556C103.613 60.606 103.625 61.714 103.356 62.77C103.086 63.826 102.546 64.7932 101.787 65.5756C101.028 66.3579 100.078 66.9282 99.0312 67.2298C98.939 67.2563 98.8436 67.2699 98.7477 67.2701Z" fill="#6ACC20"/>
<path d="M97.3028 53.4984C97.0312 53.4984 96.7708 53.3905 96.5787 53.1985C96.3867 53.0064 96.2788 52.746 96.2788 52.4744V49.9298C96.2788 49.6582 96.3867 49.3977 96.5787 49.2057C96.7708 49.0136 97.0312 48.9058 97.3028 48.9058C97.5744 48.9058 97.8348 49.0136 98.0269 49.2057C98.2189 49.3977 98.3268 49.6582 98.3268 49.9298V52.4744C98.3268 52.746 98.2189 53.0064 98.0269 53.1985C97.8348 53.3905 97.5744 53.4984 97.3028 53.4984Z" fill="#6ACC20"/>
<path d="M91.1142 56.062C90.9795 56.0619 90.8462 56.0351 90.7219 55.9831C90.5977 55.9311 90.485 55.8551 90.3903 55.7593L88.5906 53.9602C88.4917 53.866 88.4126 53.7528 88.358 53.6275C88.3035 53.5022 88.2746 53.3672 88.273 53.2306C88.2715 53.0939 88.2973 52.9583 88.3489 52.8318C88.4006 52.7052 88.4771 52.5903 88.5738 52.4938C88.6706 52.3973 88.7857 52.3211 88.9124 52.2698C89.0391 52.2184 89.1747 52.193 89.3114 52.1949C89.4481 52.1969 89.583 52.2261 89.7081 52.281C89.8333 52.3359 89.9462 52.4153 90.0402 52.5145L91.8399 54.3135C91.9833 54.4567 92.0809 54.6393 92.1205 54.838C92.1601 55.0368 92.1398 55.2428 92.0623 55.43C91.9847 55.6172 91.8533 55.7772 91.6848 55.8897C91.5162 56.0022 91.3181 56.0622 91.1154 56.062H91.1142Z" fill="#6ACC20"/>
<path d="M105.291 70.2397C105.02 70.2394 104.76 70.1315 104.568 69.9396L102.768 68.1399C102.576 67.9478 102.468 67.6873 102.468 67.4157C102.468 67.1441 102.576 66.8836 102.768 66.6916C102.96 66.4995 103.221 66.3916 103.492 66.3916C103.764 66.3916 104.024 66.4995 104.217 66.6916L106.016 68.4912C106.159 68.6344 106.257 68.8169 106.296 69.0156C106.336 69.2143 106.316 69.4202 106.238 69.6074C106.161 69.7946 106.029 69.9546 105.861 70.0671C105.692 70.1797 105.494 70.2398 105.292 70.2397H105.291Z" fill="#6ACC20"/>
<path d="M108.6 62.2511H106.055C105.784 62.2511 105.523 62.1432 105.331 61.9512C105.139 61.7592 105.031 61.4987 105.031 61.2271C105.031 60.9555 105.139 60.6951 105.331 60.503C105.523 60.311 105.784 60.2031 106.055 60.2031H108.6C108.871 60.2031 109.132 60.311 109.324 60.503C109.516 60.6951 109.624 60.9555 109.624 61.2271C109.624 61.4987 109.516 61.7592 109.324 61.9512C109.132 62.1432 108.871 62.2511 108.6 62.2511Z" fill="#6ACC20"/>
<path d="M103.491 56.0621C103.289 56.062 103.091 56.0019 102.923 55.8893C102.754 55.7768 102.623 55.6169 102.546 55.4299C102.468 55.2428 102.448 55.037 102.487 54.8384C102.527 54.6398 102.624 54.4574 102.767 54.3142L104.568 52.5145C104.761 52.3306 105.019 52.2296 105.286 52.233C105.553 52.2364 105.808 52.344 105.997 52.5328C106.186 52.7217 106.294 52.9768 106.297 53.2438C106.3 53.5108 106.199 53.7686 106.015 53.9622L104.216 55.7593C104.121 55.8551 104.008 55.9312 103.884 55.9832C103.759 56.0351 103.626 56.0619 103.491 56.0621Z" fill="#6ACC20"/>
</svg>
