<svg width="157" height="157" viewBox="0 0 157 157" fill="none" xmlns="http://www.w3.org/2000/svg">
<circle cx="77.5" cy="77.4995" r="51.5" fill="white" stroke="#6ACC20" stroke-width="2"/>
<path d="M122.337 112.392C113.28 124.086 99.9487 131.704 85.2753 133.569C70.6018 135.434 55.7885 131.394 44.094 122.337C32.3995 113.28 24.7818 99.9484 22.9167 85.2749C21.0517 70.6015 25.092 55.7881 34.1488 44.0937L42.9677 50.9235C35.7222 60.279 32.4899 72.1297 33.982 83.8685C35.474 95.6072 41.5682 106.272 50.9238 113.518C60.2794 120.763 72.1301 123.996 83.8688 122.504C95.6076 121.012 106.273 114.917 113.518 105.562L122.337 112.392Z" fill="#6ACC20"/>
<path d="M93.9202 80.3601L78.2011 86.653L69.6462 77.091C69.0742 76.4524 68.3741 75.9415 67.5915 75.5916C66.8088 75.2417 65.9613 75.0606 65.104 75.0601H56.3662C56.2531 75.06 56.1412 75.0823 56.0367 75.1255C55.9323 75.1688 55.8374 75.2322 55.7574 75.3121C55.6775 75.392 55.6141 75.4869 55.5708 75.5914C55.5276 75.6958 55.5053 75.8078 55.5054 75.9208V90.9813C55.5054 91.1067 55.5327 91.2305 55.5856 91.3442C55.6384 91.4579 55.7155 91.5587 55.8114 91.6395L64.7261 99.1537C66.0761 100.455 67.8101 101.286 69.6702 101.522C71.5303 101.758 73.417 101.388 75.0496 100.466L97.447 87.6659C97.991 87.3579 98.4559 86.9276 98.805 86.4089C99.154 85.8903 99.3776 85.2976 99.4581 84.6776C99.5437 83.9759 99.4462 83.2639 99.175 82.611C98.9039 81.9581 98.4684 81.3865 97.9108 80.9518C97.3533 80.5172 96.6927 80.2342 95.9934 80.1305C95.2941 80.0268 94.5799 80.1059 93.9202 80.3601ZM97.7521 84.4489C97.7056 84.8062 97.5767 85.1478 97.3755 85.4467C97.1743 85.7456 96.9064 85.9937 96.5929 86.1713L74.1973 98.9705C72.8792 99.7113 71.3567 100.005 69.8577 99.8084C68.3586 99.6115 66.9636 98.9345 65.8815 97.8785L57.2269 90.5812V76.7816H65.1039C65.7191 76.782 66.3274 76.912 66.889 77.1631C67.4506 77.4143 67.953 77.7809 68.3634 78.2393L76.9351 87.8205C80.0227 91.4357 74.8403 96.0574 71.5745 92.6238L64.0952 84.2639C63.9429 84.0938 63.7293 83.9912 63.5013 83.9786C63.2734 83.966 63.0498 84.0444 62.8797 84.1967C62.7096 84.349 62.6069 84.5626 62.5943 84.7905C62.5817 85.0185 62.6601 85.2421 62.8124 85.4122L70.2938 93.7745C74.3299 98.1703 81.4614 93.6291 79.1505 88.1274L94.5539 81.9607C94.9344 81.8136 95.3466 81.7674 95.7502 81.8268C96.1538 81.8862 96.5352 82.0491 96.8572 82.2996C97.1792 82.5501 97.4309 82.8797 97.5877 83.2564C97.7445 83.633 97.8012 84.0439 97.7521 84.4489Z" fill="#6ACC20"/>
<path d="M80.9503 80.1346C84.4947 80.1305 87.8927 78.7206 90.3989 76.2143C92.9052 73.708 94.315 70.31 94.319 66.7656C93.5873 49.036 68.3163 49.0304 67.582 66.7655C67.586 70.3099 68.9957 73.7079 71.5018 76.2142C74.008 78.7206 77.406 80.1305 80.9503 80.1346ZM80.9503 55.1188C84.0382 55.1222 86.9986 56.3503 89.1822 58.5337C91.3657 60.7171 92.5939 63.6775 92.5974 66.7654C91.9599 82.2128 69.9436 82.2177 69.3036 66.7655C69.3071 63.6777 70.5352 60.7173 72.7187 58.5339C74.9021 56.3504 77.8625 55.1223 80.9503 55.1188Z" fill="#6ACC20"/>
<path d="M80.9501 67.6265H85.9047C86.1301 67.6221 86.3447 67.5294 86.5025 67.3685C86.6603 67.2075 86.7487 66.9911 86.7487 66.7657C86.7487 66.5403 86.6603 66.3239 86.5025 66.163C86.3447 66.002 86.1301 65.9094 85.9047 65.9049H81.8109V60.5124C81.8102 60.2845 81.7192 60.0663 81.5579 59.9055C81.3965 59.7446 81.178 59.6543 80.9501 59.6543C80.7223 59.6543 80.5038 59.7446 80.3424 59.9055C80.1811 60.0663 80.0901 60.2845 80.0894 60.5124V66.7657C80.0893 66.8788 80.1116 66.9907 80.1548 67.0952C80.1981 67.1996 80.2615 67.2945 80.3414 67.3745C80.4213 67.4544 80.5162 67.5178 80.6207 67.5611C80.7251 67.6043 80.8371 67.6266 80.9501 67.6265Z" fill="#6ACC20"/>
<path d="M80.9677 57.5385C81.1939 57.5341 81.4092 57.4409 81.5672 57.279C81.7252 57.1171 81.8131 56.8995 81.8119 56.6734C81.8108 56.4472 81.7207 56.2305 81.561 56.0702C81.4014 55.91 81.1851 55.819 80.959 55.8169C80.7328 55.8213 80.5175 55.9145 80.3595 56.0764C80.2015 56.2383 80.1136 56.4558 80.1148 56.682C80.1159 56.9082 80.206 57.1248 80.3657 57.2851C80.5253 57.4454 80.7416 57.5364 80.9677 57.5385Z" fill="#6ACC20"/>
<path d="M73.8335 60.4931C74.0596 60.4887 74.275 60.3955 74.4329 60.2336C74.5909 60.0717 74.6788 59.8541 74.6777 59.6279C74.6765 59.4018 74.5864 59.1851 74.4268 59.0248C74.2672 58.8646 74.0509 58.7736 73.8247 58.7715C73.5985 58.7759 73.3832 58.8691 73.2252 59.031C73.0672 59.1928 72.9793 59.4104 72.9805 59.6366C72.9816 59.8628 73.0718 60.0794 73.2314 60.2397C73.391 60.4 73.6073 60.491 73.8335 60.4931Z" fill="#6ACC20"/>
<path d="M70.87 65.9048C70.6446 65.9103 70.4305 66.0041 70.2734 66.1658C70.1164 66.3276 70.0291 66.5445 70.0303 66.7699C70.0314 66.9953 70.1209 67.2113 70.2796 67.3714C70.4382 67.5316 70.6534 67.6231 70.8788 67.6264C71.1041 67.6208 71.3183 67.5271 71.4753 67.3653C71.6323 67.2036 71.7196 66.9867 71.7185 66.7613C71.7173 66.5359 71.6278 66.3199 71.4692 66.1597C71.3105 65.9996 71.0954 65.908 70.87 65.9048Z" fill="#6ACC20"/>
<path d="M73.8335 74.7606C74.0596 74.7563 74.275 74.663 74.4329 74.5012C74.5909 74.3393 74.6788 74.1217 74.6777 73.8955C74.6765 73.6693 74.5864 73.4527 74.4268 73.2924C74.2672 73.1321 74.0509 73.0411 73.8247 73.0391C73.5985 73.0434 73.3832 73.1367 73.2252 73.2985C73.0672 73.4604 72.9793 73.678 72.9805 73.9042C72.9816 74.1304 73.0718 74.347 73.2314 74.5073C73.391 74.6676 73.6073 74.7586 73.8335 74.7606Z" fill="#6ACC20"/>
<path d="M80.9589 75.9937C80.7335 75.9992 80.5193 76.0929 80.3623 76.2547C80.2053 76.4164 80.118 76.6333 80.1192 76.8587C80.1203 77.0842 80.2098 77.3001 80.3685 77.4603C80.5271 77.6204 80.7422 77.712 80.9676 77.7152C81.193 77.7097 81.4072 77.6159 81.5642 77.4542C81.7212 77.2924 81.8085 77.0756 81.8074 76.8501C81.8062 76.6247 81.7167 76.4087 81.558 76.2486C81.3994 76.0885 81.1843 75.9969 80.9589 75.9937Z" fill="#6ACC20"/>
<path d="M88.1015 74.7606C88.3277 74.7563 88.543 74.663 88.701 74.5012C88.859 74.3393 88.9469 74.1217 88.9457 73.8955C88.9446 73.6693 88.8545 73.4527 88.6948 73.2924C88.5352 73.1321 88.3189 73.0411 88.0927 73.0391C87.8666 73.0434 87.6513 73.1367 87.4933 73.2985C87.3353 73.4604 87.2474 73.678 87.2485 73.9042C87.2497 74.1304 87.3398 74.347 87.4994 74.5073C87.6591 74.6676 87.8753 74.7586 88.1015 74.7606Z" fill="#6ACC20"/>
<path d="M91.0566 67.6264C91.2828 67.622 91.4981 67.5288 91.6561 67.3669C91.814 67.205 91.902 66.9874 91.9008 66.7612C91.8997 66.5351 91.8095 66.3184 91.6499 66.1581C91.4903 65.9979 91.274 65.9069 91.0478 65.9048C90.8217 65.9092 90.6063 66.0024 90.4484 66.1643C90.2904 66.3261 90.2025 66.5437 90.2036 66.7699C90.2048 66.9961 90.2949 67.2127 90.4545 67.373C90.6141 67.5333 90.8304 67.6243 91.0566 67.6264Z" fill="#6ACC20"/>
<path d="M88.1015 60.4931C88.3277 60.4887 88.543 60.3955 88.701 60.2336C88.859 60.0717 88.9469 59.8541 88.9457 59.6279C88.9446 59.4018 88.8545 59.1851 88.6948 59.0248C88.5352 58.8646 88.3189 58.7736 88.0927 58.7715C87.8666 58.7759 87.6513 58.8691 87.4933 59.031C87.3353 59.1928 87.2474 59.4104 87.2485 59.6366C87.2497 59.8628 87.3398 60.0794 87.4994 60.2397C87.6591 60.4 87.8753 60.491 88.1015 60.4931Z" fill="#6ACC20"/>
</svg>
